<?xml version="1.0" standalone="no"?>
<!DOCTYPE svg PUBLIC "-//W3C//DTD SVG 20010904//EN"
 "http://www.w3.org/TR/2001/REC-SVG-20010904/DTD/svg10.dtd">
<svg version="1.0" xmlns="http://www.w3.org/2000/svg"
 width="1024.000000pt" height="1024.000000pt" viewBox="0 0 1024.000000 1024.000000"
 preserveAspectRatio="xMidYMid meet">

<g transform="translate(0.000000,1024.000000) scale(0.100000,-0.100000)"
fill="#FFFFFF" stroke="none">
<path d="M4915 8840 c-513 -32 -1039 -179 -1502 -420 -589 -307 -996 -669
-1407 -1254 -425 -603 -662 -1463 -616 -2232 37 -637 217 -1224 531 -1741 185
-304 436 -611 685 -836 432 -394 968 -688 1563 -861 68 -20 127 -36 132 -36
11 0 12 1468 2 2033 l-6 377 -247 0 c-136 0 -271 5 -301 10 -58 11 -122 40
-156 72 -12 12 -27 17 -34 13 -7 -5 -10 -4 -5 3 5 9 -40 88 -64 112 -3 3 -6
12 -7 20 -1 8 -6 39 -12 69 -6 29 -11 132 -11 227 l0 174 -50 93 c-139 260
-217 678 -191 1015 13 166 40 325 76 452 32 115 120 341 152 392 13 21 23 42
23 47 0 5 4 11 8 13 4 2 27 32 50 68 23 36 88 112 144 168 558 562 1426 753
2173 478 332 -123 658 -349 852 -591 35 -44 72 -89 81 -100 9 -11 14 -20 12
-20 -2 0 7 -19 21 -42 20 -34 28 -40 38 -30 11 10 11 8 1 -9 -10 -17 -8 -28
14 -72 41 -81 91 -226 125 -365 128 -517 77 -1026 -144 -1431 l-45 -83 0 -205
0 -205 -35 -69 c-41 -81 -56 -100 -110 -136 -91 -62 -95 -62 -407 -66 l-288
-4 0 -1203 0 -1204 107 29 c410 110 823 299 1173 537 532 363 1005 915 1278
1493 263 557 390 1201 354 1803 -45 747 -289 1418 -730 2002 -385 510 -818
867 -1387 1145 -259 126 -460 201 -715 265 -347 88 -769 127 -1125 105z m191
-465 c33 -50 -20 -104 -71 -71 -44 29 -27 96 25 96 20 0 35 -8 46 -25z m-617
-101 c64 -82 -40 -172 -116 -101 -49 45 -12 127 57 127 30 0 43 -6 59 -26z
m1399 -76 c28 -28 1 -98 -36 -98 -22 0 -52 30 -52 52 0 50 55 79 88 46z m-573
-83 c17 -16 25 -35 25 -60 0 -25 -8 -44 -25 -60 -55 -56 -145 -16 -145 64 0
31 6 44 26 60 37 29 89 27 119 -4z m-1433 -143 c86 -80 41 -202 -74 -202 -43
0 -54 4 -84 34 -106 106 49 270 158 168z m2640 28 c76 -22 111 -107 72 -181
-16 -32 -66 -59 -109 -59 -62 0 -125 63 -125 125 0 42 34 93 73 110 39 17 43
17 89 5z m-3144 -465 c35 -33 34 -90 -2 -121 -38 -33 -80 -31 -117 5 -84 85
33 199 119 116z m-649 -332 c14 -12 24 -37 31 -75 15 -93 43 -120 145 -133 59
-8 95 -37 95 -75 0 -39 -30 -60 -100 -70 -99 -14 -128 -42 -141 -140 -9 -62
-26 -80 -75 -80 -38 0 -64 29 -64 72 0 41 -27 101 -56 121 -14 10 -53 23 -86
27 -69 10 -100 33 -100 75 0 40 22 55 103 71 93 17 125 47 135 126 11 83 64
121 113 81z m4885 -6 c16 -16 26 -42 31 -78 11 -78 49 -114 132 -123 65 -7 97
-26 107 -62 9 -31 -28 -72 -69 -79 -19 -3 -51 -7 -70 -10 -53 -9 -92 -54 -100
-117 -9 -73 -27 -98 -69 -98 -42 0 -66 26 -73 82 -12 91 -50 128 -145 139 -70
8 -98 29 -98 74 0 43 17 55 102 71 62 11 78 19 106 49 21 23 32 45 33 67 2 54
13 82 39 95 35 18 48 16 74 -10z m-5450 -928 c75 -59 74 -154 -3 -206 -40 -27
-80 -29 -127 -7 -43 21 -64 59 -64 120 0 39 5 51 34 80 30 30 41 34 84 34 35
0 57 -6 76 -21z m6081 -12 c57 -57 59 -130 4 -183 -26 -25 -38 -29 -84 -29
-66 0 -104 25 -123 81 -17 51 -3 103 39 138 24 20 41 26 81 26 43 0 54 -4 83
-33z m-5174 -428 c-5 -13 -10 -19 -10 -12 -1 15 10 45 15 40 3 -2 0 -15 -5
-28z m-517 -100 c31 -24 36 -77 9 -102 -46 -41 -123 -10 -123 48 0 30 41 75
68 75 11 0 31 -9 46 -21z m5301 -24 c14 -13 25 -35 25 -49 0 -28 -42 -66 -72
-66 -25 0 -68 44 -68 70 0 12 11 32 25 45 13 14 34 25 45 25 12 0 32 -11 45
-25z m-4858 -337 c-3 -7 -5 -2 -5 12 0 14 2 19 5 13 2 -7 2 -19 0 -25z m5113
12 c54 -29 40 -100 -20 -100 -48 0 -66 54 -30 90 23 23 25 23 50 10z m-6100
-72 c13 -25 13 -31 0 -54 -19 -34 -50 -46 -81 -30 -35 17 -46 58 -25 91 24 37
83 33 106 -7z m987 -95 c-2 -16 -4 -5 -4 22 0 28 2 40 4 28 2 -13 2 -35 0 -50z
m5351 -19 c46 -32 17 -114 -40 -114 -26 0 -58 40 -58 71 0 29 31 59 60 59 9 0
26 -7 38 -16z m-5341 -106 c-3 -7 -5 -2 -5 12 0 14 2 19 5 13 2 -7 2 -19 0
-25z m10 -85 c-3 -10 -5 -4 -5 12 0 17 2 24 5 18 2 -7 2 -21 0 -30z m4240 -5
c-3 -8 -6 -5 -6 6 -1 11 2 17 5 13 3 -3 4 -12 1 -19z m-4906 -14 c38 -35 28
-121 -16 -138 -78 -29 -153 53 -114 125 21 40 92 47 130 13z m698 -139 c-2
-24 -27 71 -27 100 0 11 6 -2 14 -30 7 -27 13 -59 13 -70z m4188 43 c-3 -8 -6
-5 -6 6 -1 11 2 17 5 13 3 -3 4 -12 1 -19z m-4160 -160 c-3 -8 -6 -5 -6 6 -1
11 2 17 5 13 3 -3 4 -12 1 -19z m40 -120 c-3 -8 -6 -5 -6 6 -1 11 2 17 5 13 3
-3 4 -12 1 -19z m4804 -67 c35 -35 39 -44 39 -90 0 -72 -36 -112 -106 -118
-59 -5 -90 10 -121 56 -27 40 -29 80 -7 127 21 43 56 63 113 64 37 0 49 -5 82
-39z m-4770 -7 c5 -15 8 -29 5 -31 -2 -2 -8 10 -14 26 -13 38 -5 41 9 5z m29
-79 c0 -5 -5 -3 -10 5 -5 8 -10 20 -10 25 0 6 5 3 10 -5 5 -8 10 -19 10 -25z
m3923 10 c-3 -9 -8 -14 -10 -11 -3 3 -2 9 2 15 9 16 15 13 8 -4z m-3883 -93
c0 -4 -9 7 -20 23 -11 17 -20 35 -20 40 0 6 9 -5 20 -23 11 -18 20 -36 20 -40z
m3754 -148 c-20 -30 -29 -32 -12 -1 7 12 11 26 10 30 -1 5 2 6 8 2 6 -4 4 -15
-6 -31z m-3667 1 c0 -8 -4 -12 -9 -9 -5 3 -6 10 -3 15 9 13 12 11 12 -6z m39
-54 c-3 -5 1 -14 9 -21 8 -7 15 -17 15 -22 0 -6 -9 0 -19 13 -17 21 -19 39 -5
39 3 0 3 -4 0 -9z m192 -192 c3 -12 2 -12 -6 0 -6 8 -15 10 -22 6 -9 -5 -11
-4 -6 4 10 15 28 10 34 -10z m27 -89 c10 -11 16 -20 13 -20 -3 0 -13 9 -23 20
-10 11 -16 20 -13 20 3 0 13 -9 23 -20z m179 -160 c4 0 4 5 0 12 -4 7 -3 8 4
4 6 -4 9 -13 5 -21 -7 -19 -5 -20 -34 12 -17 20 -18 23 -3 10 11 -9 24 -17 28
-17z m2812 18 c4 -7 4 -10 -1 -6 -10 9 -47 -10 -40 -21 2 -5 -2 -14 -9 -20 -9
-7 -17 -8 -20 -2 -3 5 8 21 25 35 35 30 35 30 45 14z m-2766 -48 c0 -5 -2 -10
-4 -10 -3 0 -8 5 -11 10 -3 6 -1 10 4 10 6 0 11 -4 11 -10z m35 -38 c-3 -3
-11 0 -18 7 -9 10 -8 11 6 5 10 -3 15 -9 12 -12z m54 -11 c10 -7 7 -9 -12 -8
-14 1 -23 5 -20 10 6 9 15 9 32 -2z m36 -40 c-3 -2 1 -11 8 -19 9 -11 4 -11
-15 2 -33 22 -33 22 -8 22 10 0 17 -2 15 -5z m74 -35 c9 -11 9 -16 -1 -22 -7
-4 -10 -4 -6 1 4 4 3 14 -3 22 -6 7 -9 13 -6 13 2 0 10 -6 16 -14z m-24 -14
c-3 -3 -11 0 -18 7 -9 10 -8 11 6 5 10 -3 15 -9 12 -12z m2325 -6 c0 -2 -7 -7
-16 -10 -8 -3 -12 -2 -9 4 6 10 25 14 25 6z m-2050 -146 c8 -5 11 -10 5 -10
-5 0 -17 5 -25 10 -8 5 -10 10 -5 10 6 0 17 -5 25 -10z m-453 -64 c43 -38 179
-127 270 -177 35 -19 63 -37 63 -40 0 -10 -1593 -10 -1635 0 -25 6 -50 22 -67
43 -56 66 -26 174 55 197 18 5 310 10 654 10 l623 1 37 -34z m3994 24 c109
-31 132 -175 36 -227 -30 -17 -85 -18 -727 -21 -382 -2 -756 -1 -830 3 -128 7
-133 8 -105 22 88 45 247 141 295 178 30 23 62 44 70 48 28 10 1223 8 1261 -3z
m-4417 -501 c37 -44 36 -101 -3 -140 -28 -28 -33 -29 -118 -29 -104 0 -132 12
-151 62 -17 45 -10 81 23 114 22 22 32 24 124 24 99 0 99 0 125 -31z m3777 18
c25 -19 39 -53 39 -95 0 -33 -6 -45 -31 -66 -28 -24 -38 -26 -119 -26 -80 0
-91 2 -119 26 -38 32 -49 80 -27 122 9 17 24 36 33 41 26 15 204 13 224 -2z
m-3544 -482 c32 -32 35 -40 30 -77 -9 -69 -32 -82 -143 -86 -118 -5 -140 1
-164 41 -29 47 -26 93 9 128 29 28 32 29 131 29 l102 0 35 -35z m3306 24 c32
-14 57 -59 57 -102 0 -27 -7 -41 -31 -61 -28 -24 -38 -26 -129 -26 -91 0 -101
2 -128 25 -17 14 -33 39 -37 55 -8 36 17 93 48 108 29 14 190 15 220 1z"/>
<path d="M5027 7025 c-188 -110 -375 -351 -453 -582 -58 -171 -66 -234 -71
-566 l-5 -309 -177 -186 c-98 -103 -266 -279 -375 -392 -110 -115 -205 -223
-216 -246 -18 -37 -20 -62 -20 -288 0 -200 3 -253 15 -276 32 -61 23 -60 442
-60 l383 0 0 -254 c0 -200 3 -262 15 -296 13 -37 15 -186 15 -1100 l0 -1058
33 -5 c32 -6 165 -20 305 -32 l72 -6 0 870 0 869 -28 7 c-50 10 -93 44 -112
88 -16 34 -20 65 -20 165 l0 122 303 -2 302 -3 3 -95 c5 -133 -9 -190 -57
-233 -22 -19 -53 -38 -70 -42 l-31 -7 0 -869 c0 -821 1 -869 18 -869 20 0 272
27 344 36 l48 7 0 1071 c0 907 3 1077 15 1111 11 31 14 97 15 283 l0 242 381
0 381 0 40 39 39 40 -3 264 -3 265 -35 50 c-19 28 -177 198 -350 379 -174 180
-336 350 -360 377 l-45 49 -6 336 c-5 320 -7 341 -31 431 -73 269 -236 506
-444 647 -130 89 -149 91 -257 28z m183 -312 c39 -36 80 -79 90 -93 l20 -28
-62 25 c-83 34 -191 30 -261 -10 -38 -20 -47 -22 -47 -10 0 15 166 183 181
183 5 0 40 -30 79 -67z m73 -512 c66 -29 150 -110 178 -174 20 -44 24 -73 27
-184 l4 -133 -357 0 -357 0 4 133 c3 120 6 138 31 189 39 79 121 152 200 178
79 26 199 22 270 -9z m-94 -857 c55 -46 28 -124 -46 -139 -28 -6 -38 -2 -63
23 -38 39 -40 83 -5 117 32 33 75 32 114 -1z m-649 -187 c0 -54 0 -54 -69
-118 -162 -151 -296 -285 -293 -294 2 -5 0 -7 -4 -3 -4 4 -19 -1 -34 -12 -26
-19 -70 -27 -70 -14 0 5 122 137 407 441 26 28 51 51 56 52 4 1 7 -23 7 -52z
m1425 -187 c253 -272 246 -265 229 -268 -20 -5 -94 54 -239 189 -66 62 -144
134 -172 161 -52 48 -53 50 -53 106 l0 56 36 -35 c20 -18 109 -113 199 -209z
m-761 130 c19 -18 21 -35 24 -146 2 -69 1 -137 -2 -150 -10 -40 -45 -64 -92
-64 -35 0 -47 5 -68 31 -25 30 -26 35 -26 168 0 130 1 139 23 158 12 11 29 23
37 26 27 11 83 -2 104 -23z m-661 -497 c2 -5 2 -55 -1 -113 l-4 -105 -282 1
-281 1 -3 112 -3 111 285 0 c157 0 287 -3 289 -7z m1755 -103 l-3 -110 -288
-3 -287 -2 0 113 0 112 290 0 291 0 -3 -110z m-838 -80 l0 -100 -330 0 -330 0
0 93 c0 52 3 97 7 100 3 4 152 7 330 7 l323 0 0 -100z m-5 -620 l0 -45 -322
-3 -323 -2 0 50 0 50 323 -2 322 -3 0 -45z"/>
<path d="M5840 6999 c-39 -15 -60 -49 -60 -97 0 -94 103 -137 169 -71 52 52
35 145 -30 168 -38 13 -46 13 -79 0z"/>
<path d="M4067 6726 c-71 -26 -107 -80 -107 -163 0 -142 173 -210 275 -107 87
86 63 214 -50 265 -47 22 -67 23 -118 5z"/>
<path d="M6215 6576 c-109 -50 -167 -176 -136 -291 36 -135 195 -213 335 -166
51 18 124 85 147 136 35 76 21 175 -34 247 -71 93 -204 125 -312 74z"/>
<path d="M3727 5925 c-123 -47 -197 -156 -197 -289 0 -186 192 -325 375 -271
107 31 176 96 211 199 43 125 -26 283 -151 349 -52 27 -182 33 -238 12z"/>
<path d="M6424 5759 c-180 -69 -252 -295 -141 -441 69 -90 151 -132 257 -131
204 3 348 203 285 394 -24 72 -110 159 -179 182 -66 22 -158 21 -222 -4z"/>
<path d="M3502 5142 c-28 -21 -39 -83 -23 -125 16 -41 70 -62 114 -44 39 17
61 42 51 58 -4 8 -3 9 4 5 8 -5 12 4 12 29 0 77 -97 124 -158 77z"/>
</g>
</svg>
